<?xml version="1.0" encoding="UTF-8"?>
<!DOCTYPE svg PUBLIC "-//W3C//DTD SVG 1.1//EN" "http://www.w3.org/Graphics/SVG/1.1/DTD/svg11.dtd">
<!-- Creator: CorelDRAW -->
<svg xmlns="http://www.w3.org/2000/svg" xml:space="preserve" width="2048px" height="2048px" style="shape-rendering:geometricPrecision; text-rendering:geometricPrecision; image-rendering:optimizeQuality; fill-rule:evenodd; clip-rule:evenodd"
viewBox="0 0 2048 2048"
 xmlns:xlink="http://www.w3.org/1999/xlink">
 <defs>
  <style type="text/css">
   <![CDATA[
    .fil2 {fill:none}
    .fil1 {fill:#303F9F}
    .fil0 {fill:#5C6BC0}
    .fil11 {fill:#754529}
    .fil10 {fill:#7CB342}
    .fil9 {fill:#8BC34A}
    .fil5 {fill:#C57040}
    .fil4 {fill:#E08045}
    .fil14 {fill:#FF8F00}
    .fil3 {fill:#FFAF68}
    .fil6 {fill:#FFF8E1}
    .fil8 {fill:#C26C34;fill-rule:nonzero}
    .fil13 {fill:#C37537;fill-rule:nonzero}
    .fil7 {fill:#E08045;fill-rule:nonzero}
    .fil12 {fill:#FF8F00;fill-rule:nonzero}
   ]]>
  </style>
   <clipPath id="id0">
    <path d="M1024 -0.0011811c565.541,0 1024,458.461 1024,1024 0,565.541 -458.461,1024 -1024,1024 -565.541,0 -1024,-458.461 -1024,-1024 0,-565.541 458.461,-1024 1024,-1024z"/>
   </clipPath>
 </defs>
 <g id="Layer_x0020_1">
  <metadata id="CorelCorpID_0Corel-Layer"/>
  <path class="fil0" d="M1024 -0.0011811c565.541,0 1024,458.461 1024,1024 0,565.541 -458.461,1024 -1024,1024 -565.541,0 -1024,-458.461 -1024,-1024 0,-565.541 458.461,-1024 1024,-1024z"/>
  <g style="clip-path:url(#id0)">
   <g id="_517134520">
    <g>
     <polygon id="_3738952001" class="fil1" points="1372.18,488.783 2508.06,1624.67 2508.06,1713.18 1372.18,577.3 "/>
     <polygon id="_373895440" class="fil1" points="1416.25,1561.63 2552.13,2697.51 2552.01,2699.8 2551.67,2702.02 2551.12,2704.16 2550.37,2706.22 2549.43,2708.17 2548.31,2710.02 2547.02,2711.74 2545.57,2713.33 2543.99,2714.77 2542.26,2716.06 2540.42,2717.18 2538.46,2718.12 2536.41,2718.88 2534.26,2719.43 2532.04,2719.77 2529.76,2719.88 1393.87,1584 1396.16,1583.88 1398.38,1583.55 1400.53,1582.99 1402.58,1582.24 1404.54,1581.3 1406.38,1580.18 1408.1,1578.89 1409.69,1577.45 1411.14,1575.86 1412.42,1574.14 1413.55,1572.29 1414.49,1570.34 1415.24,1568.28 1415.79,1566.14 1416.13,1563.92 "/>
     <polygon id="_373896640" class="fil1" points="1393.87,1584 2529.76,2719.88 1888.5,2719.88 752.617,1584 "/>
     <polygon id="_373896184" class="fil1" points="752.617,1584 1888.5,2719.88 1876.09,2719.88 740.206,1584 "/>
     <polygon id="_373896472" class="fil1" points="737.356,1583.95 1873.24,2719.83 1872.46,2719.82 1871.67,2719.77 1870.89,2719.7 1870.1,2719.6 1869.32,2719.48 1868.53,2719.32 1867.75,2719.14 1866.96,2718.92 731.079,1583.04 731.865,1583.25 732.65,1583.44 733.437,1583.6 734.223,1583.72 735.009,1583.82 735.793,1583.89 736.576,1583.93 "/>
     <polygon id="_373896040" class="fil1" points="740.206,1584 1876.09,2719.88 1873.24,2719.88 737.356,1584 "/>
     <polygon id="_373896064" class="fil1" points="731.079,1583.04 1866.96,2718.92 1864.19,2718.08 1861.46,2717.22 1858.77,2716.33 1856.11,2715.41 1853.49,2714.46 1850.91,2713.49 1848.37,2712.49 1845.86,2711.45 1843.39,2710.4 1840.95,2709.31 1838.56,2708.19 1836.2,2707.05 1833.88,2705.88 1831.6,2704.68 1829.35,2703.45 1827.14,2702.19 1824.97,2700.9 1822.84,2699.59 1820.75,2698.24 1818.69,2696.87 1816.68,2695.47 1814.7,2694.04 1812.76,2692.57 1810.85,2691.08 1808.99,2689.56 673.11,1553.68 674.973,1555.2 676.875,1556.69 678.815,1558.15 680.794,1559.58 682.811,1560.99 684.867,1562.36 686.96,1563.71 689.092,1565.02 691.262,1566.31 693.469,1567.56 695.715,1568.79 697.998,1570 700.319,1571.17 702.676,1572.31 705.073,1573.43 707.506,1574.51 709.977,1575.57 712.484,1576.6 715.029,1577.61 717.612,1578.58 720.232,1579.53 722.888,1580.45 725.581,1581.34 728.312,1582.2 "/>
     <polygon id="_373896424" class="fil1" points="1366.51,473.553 2502.4,1609.44 2503.25,1610.48 2504.04,1611.58 2504.77,1612.72 2505.43,1613.91 2506.03,1615.13 2506.55,1616.4 2507,1617.7 2507.38,1619.04 2507.67,1620.4 2507.89,1621.8 2508.02,1623.22 2508.06,1624.67 1372.18,488.783 1372.14,487.339 1372,485.918 1371.79,484.522 1371.5,483.155 1371.12,481.819 1370.67,480.517 1370.15,479.25 1369.55,478.023 1368.89,476.837 1368.16,475.695 1367.37,474.599 "/>
     <polygon id="_373896088" class="fil1" points="1416.25,599.665 2552.13,1735.55 2552.13,2697.51 1416.25,1561.63 "/>
     <polygon id="_373896112" class="fil1" points="1405.92,577.293 2541.8,1713.17 2545.78,1719.94 1409.9,584.057 "/>
     <polygon id="_373896448" class="fil1" points="1410.62,584.829 2546.5,1720.71 2547.18,1721.52 2547.82,1722.36 2548.43,1723.22 2548.99,1724.12 2549.51,1725.05 2549.99,1726 2550.43,1726.98 2550.81,1727.98 2551.15,1729 2551.45,1730.05 2551.69,1731.11 2551.88,1732.2 2552.01,1733.3 2552.1,1734.42 2552.13,1735.55 1416.25,599.665 1416.22,598.534 1416.13,597.416 1416,596.315 1415.81,595.232 1415.56,594.167 1415.27,593.122 1414.93,592.097 1414.54,591.095 1414.11,590.118 1413.63,589.165 1413.11,588.24 1412.55,587.341 1411.94,586.473 1411.3,585.636 "/>
    </g>
    <path id="_517134712" class="fil1" d="M1416.25 599.665l0 961.964c0,12.3555 -10.0169,22.3713 -22.3713,22.3713l-641.258 0 -12.411 0 -2.85 0 0 -0.0519685c-2.0752,-0.00236221 -4.18465,-0.295276 -6.27638,-0.90945 -29.7118,-8.77678 -53.1591,-22.2284 -69.9296,-40.8331 -17.0516,-18.9154 -26.7933,-42.4819 -28.7823,-71.1296 -0.126378,-0.96378 -0.19252,-1.9441 -0.19252,-2.94213l0 -913.028c-2.2004,-17.6043 4.38189,-33.5729 16.598,-46.2437 21.9933,-22.8095 70.9477,-41.4697 158.008,-43.2107 179.731,-3.58583 362.302,-0.21378 542.347,-0.21378 5.03386,0 9.68032,1.66299 13.4185,4.47048 5.83701,4.23544 9.63308,11.113 9.63308,18.8752l0 88.5166 33.7382 -0.00708662 3.98032 6.76418c3.92717,4.02992 6.34725,9.53741 6.34725,15.6083z"/>
   </g>
  </g>
  <path class="fil2" d="M1024 -0.0011811c565.541,0 1024,458.461 1024,1024 0,565.541 -458.461,1024 -1024,1024 -565.541,0 -1024,-458.461 -1024,-1024 0,-565.541 458.461,-1024 1024,-1024z"/>
  <path class="fil3" d="M740.206 577.426l665.712 -0.133465 3.98032 6.76418c3.92717,4.02992 6.34725,9.53741 6.34725,15.6083l0 961.964c0,12.3555 -10.0169,22.3713 -22.3713,22.3713l-653.669 0 0 -1006.57z"/>
  <path class="fil4" d="M734.329 577.432l5.87481 -0.0011811 0 1006.34c-2.97047,0.382677 -6.06615,0.170079 -9.12402,-0.72756 -29.7118,-8.77678 -53.1591,-22.2284 -69.9296,-40.8331 -17.0516,-18.9154 -26.7933,-42.4819 -28.7823,-71.1296 -0.126378,-0.96378 -0.19252,-1.9441 -0.19252,-2.94213l0 -913.028c-2.2004,-17.6043 4.38189,-33.5729 16.598,-46.2437 21.9933,-22.8095 70.9477,-41.4697 158.008,-43.2107 179.731,-3.58583 362.302,-0.21378 542.347,-0.21378 10.2661,0 18.9177,6.91772 21.5492,16.3441 4.90985,11.263 -4.11969,24.0697 -18.5965,27.2752 -9.9945,0.62126 -18.4547,1.12441 -28.3299,1.12795l-524.176 0.216142c-12.5705,0.69567 -55.7292,-0.466536 -87.032,7.52008 -68.6162,17.5075 -29.7296,59.6977 21.7854,59.5111z"/>
  <path class="fil5" d="M737.356 564.471l0 1019.53 15.261 0 0 -1018.92c-0.574016,0.141732 -1.15748,0.231496 -1.75158,0.263386 -4.61811,0.249213 -9.13465,-0.0625985 -13.5095,-0.869292z"/>
  <path class="fil6" d="M1339.95 510.45l-21.5079 0.00944883 -525.749 0.211417c-75.7323,0.0295276 -112.109,12.7996 -116.665,31.3914 -3.5374,14.4366 10.2898,35.7874 51.4181,35.6386 0.519685,-0.0897638 1.01575,-0.138189 1.47756,-0.138189l613.568 0 -2.54173 -67.1127z"/>
  <path class="fil7" d="M1372.18 488.783c0,-12.8705 -10.435,-23.3055 -23.3055,-23.3055 -12.8705,0 -23.3043,10.435 -23.3043,23.3055l0 20.7673 0 68.0079 46.6099 0 0 -88.7753z"/>
  <rect class="fil5" x="937.43" y="809.699" width="264.005" height="28.12"/>
  <rect class="fil5" x="838.817" y="887.026" width="461.23" height="28.12"/>
  <path class="fil8" d="M1230.83 1296.51l-288.252 -1.19528c-11.0433,-0.046063 -21.065,-5.10591 -28.317,-13.2236 -7.24489,-8.11064 -11.7213,-19.2957 -11.6799,-31.5969l0 -0.00236221c0.0248032,-7.28977 2.73071,-13.9063 7.07127,-18.6933 4.33465,-4.77992 10.3193,-7.73505 16.9087,-7.70788l0.00236221 0 320.841 1.32992c6.56339,0.0283465 12.5197,3.03425 16.8284,7.85788 4.30276,4.81654 6.96024,11.4685 6.93662,18.7902 -0.0425197,12.2705 -4.59685,23.4059 -11.9032,31.4634 -7.29804,8.04922 -17.3646,13.0228 -28.4362,12.978zm-304.269 -72.4193l0.0011811 0m-23.9811 26.4036l0 -0.0011811"/>
  <path class="fil9" d="M1262.76 1225.39c2.22874,7.89686 -1.64528,8.77205 8.73898,13.0347 0.269292,0.191339 19.9961,5.46378 7.32284,10.8697 -0.0236221,0.00944883 -15.965,-4.08071 -18.0732,-4.67717 -10.4622,-2.96103 1.54961,-4.78465 -16.3323,-5.17678 -7.25906,-0.159449 -6.03544,-6.68268 -14.2524,-3.76063 -8.21457,2.92087 -5.34449,1.5437 -14.0102,5.3504 -1.25079,0.549213 -4.67244,0.0862205 -11.8913,3.14528 -6.59882,2.79685 -16.3937,0.390945 -17.5595,-3.95788 -2.65394,0 -22.7162,16.7339 -40.4244,-1.07953l-0.715749 -0.719292c-12.3992,-12.4736 -16.337,0.579922 -39.9922,0.579922 -18.5788,0 -3.69095,8.35867 -25.1185,-1.55433 -5.73189,-2.65276 -14.6929,14.3185 -23.2689,7.91575 -6.09686,-4.55197 -15.3295,-7.52717 -22.5142,-4.39961 -6.11457,2.66221 -13.0595,-4.08662 -17.4248,-8.20631 -13.3063,-0.255118 -23.5028,8.83465 -35.6055,0.116929 -4.61103,-3.32244 -15.2008,12.874 -30.5445,8.22875 -5.18859,-1.57087 -7.95709,10.1575 -20.948,9.68032 -12.9142,-0.474804 -7.11378,-3.88347 -21.1772,-4.063 -11.8512,-0.151181 -10.5815,-14.4095 -5.87126,-20.3811 0.167717,-0.211417 1.58858,-3.12756 1.66063,-3.51733 9.78662,-4.85433 81.939,-2.16142 100.622,-4.43268 35.5158,-4.31929 61.8154,4.77048 98.1792,4.77048 33.7004,0 78.6024,1.16693 110.813,-0.511418 4.96536,-0.258662 41.3091,-4.86615 44.2973,-1.6252 0.334252,0.362599 0.279921,0.386221 0.390945,0.848032 1.23543,0.219685 1.60984,1.02874 2.28189,2.1 0.590552,0.943702 1.22244,0.731103 1.41732,1.42205z"/>
  <path class="fil10" d="M903.772 1226.61c-2.15315,7.89686 1.58858,8.77324 -8.44135,13.0347 -0.258662,0.191339 -19.3134,5.46378 -7.07127,10.8697 0.0212599,0.00944883 15.4193,-4.08189 17.4555,-4.67717 10.1055,-2.96103 -1.49764,-4.78465 15.7736,-5.17678 7.01221,-0.159449 5.82993,-6.68268 13.7669,-3.76063 7.93347,2.92087 5.16142,1.5437 13.5319,5.3504 1.20709,0.549213 4.513,0.0862205 11.485,3.14528 6.37323,2.79567 15.8339,0.389764 16.9606,-3.95788 2.56299,0 21.9402,16.7339 39.0437,-1.07953l0.690945 -0.719292c11.9764,-12.4736 15.7795,0.579922 38.6268,0.579922 17.9445,0 3.56575,8.35867 24.261,-1.55551 5.53701,-2.65158 14.191,14.3197 22.4752,7.91575 5.8878,-4.55079 14.8051,-7.52599 21.7441,-4.39843 5.9067,2.66221 12.6142,-4.08662 16.8307,-8.20631 12.8516,-0.255118 22.7008,8.83583 34.3902,0.116929 4.45394,-3.32244 14.6823,12.874 29.5016,8.22875 5.01142,-1.57087 7.68662,10.1575 20.2323,9.68032 12.4736,-0.474804 6.87166,-3.88347 20.4543,-4.063 11.4473,-0.151181 10.2213,-14.4106 5.67166,-20.3811 -0.161811,-0.212599 -1.53425,-3.12756 -1.60394,-3.51733 -9.45237,-4.85433 -79.1422,-2.16142 -97.1871,-4.43268 -34.3028,-4.31929 -59.7048,4.7693 -94.8272,4.7693 -32.55,0 -75.919,1.16693 -107.029,-0.510237 -4.79764,-0.258662 -39.9,-4.86733 -42.7855,-1.6252 -0.322441,0.362599 -0.271654,0.386221 -0.377953,0.848032 -1.1941,0.218504 -1.55433,1.02756 -2.20394,2.10118 -0.570473,0.94252 -1.1811,0.729922 -1.3689,1.42087z"/>
  <path class="fil11" d="M919.906 1170.12l333.944 0c16.9677,0 30.8516,13.8839 30.8516,30.8528l0 0c0,16.9689 -13.8839,30.8528 -30.8516,30.8528l-333.944 0c-16.9701,0 -30.8528,-13.8839 -30.8528,-30.8528l0 0c0,-16.9689 13.8827,-30.8528 30.8528,-30.8528z"/>
  <path class="fil12" d="M901.685 1211.78c-3.53032,2.58189 -3.94725,7.12441 -0.929528,10.1457 3.01772,3.02008 8.32796,3.37677 11.8595,0.794883l0.00236221 -0.00236221 0.0129921 0.0129921c0.185433,-0.134646 0.362599,-0.275197 0.531496,-0.421654 8.71654,-6.29528 17.3929,-12.4547 24.15,-12.2315 3.25985,0.10748 7.45158,1.78701 11.6386,3.46536 6.0567,2.42835 12.1087,4.85433 19.239,4.78583 6.88938,-0.0649607 12.7642,-2.47205 18.639,-4.87914 4.20237,-1.72205 8.40591,-3.4441 11.6008,-3.45355 3.19488,-0.0106299 7.44922,1.70197 11.7118,3.41693 5.89489,2.37166 11.8004,4.74804 18.6555,4.813 6.88701,0.0661418 12.8433,-2.21457 18.7996,-4.4941 4.27087,-1.63583 8.54292,-3.27047 11.7685,-3.21969 3.19961,0.0507874 7.43032,1.78701 11.6835,3.53268 6.02126,2.46969 12.0768,4.95591 19.174,5.02205 7.17166,0.0661418 13.4516,-2.36103 19.6807,-4.7693 4.31811,-1.6689 8.60316,-3.32599 11.8417,-3.37677 3.29764,-0.0531496 7.4504,1.60158 11.5866,3.2504 5.54528,2.20866 11.0705,4.41024 17.6339,4.55788 6.66497,0.15 12.5079,-1.85906 18.3957,-3.88229 4.34882,-1.49528 8.73308,-3.00236 12.1583,-2.90551 3.41929,0.0968505 7.67127,1.77402 11.8984,3.44173 5.99646,2.36693 11.9575,4.71851 18.9059,4.69725 7.22481,-0.0236221 13.3642,-2.60788 19.3406,-5.12481 3.80433,-1.60158 7.51654,-3.16418 10.1303,-3.28583 5.81221,-0.269292 15.1973,8.23938 19.1941,11.6776 10.6347,5.68347 16.9134,-6.62835 11.889,-10.1516 -9.58111,-8.24764 -19.1599,-16.4953 -31.9784,-15.9 -5.99764,0.27874 -11.2701,2.49803 -16.6736,4.77284 -4.24252,1.78701 -8.60079,3.62126 -11.9398,3.63189 -3.23859,0.0106299 -7.53071,-1.68307 -11.8476,-3.38622 -5.78504,-2.28307 -11.6055,-4.57914 -18.3095,-4.7693 -6.96851,-0.196063 -13.0417,1.89095 -19.0642,3.96142 -4.24489,1.45984 -8.45788,2.9067 -11.6362,2.83583 -3.10866,-0.0696851 -7.05591,-1.64291 -11.015,-3.21969 -5.92087,-2.35984 -11.8654,-4.72796 -18.9756,-4.61339 -6.63662,0.103937 -12.5114,2.3752 -18.4335,4.66418 -4.51654,1.74685 -9.06969,3.5067 -12.587,3.47362 -3.44173,-0.0318898 -7.78583,-1.81417 -12.1039,-3.58583 -5.88426,-2.41536 -11.7354,-4.81654 -18.6319,-4.92638 -7.01103,-0.109843 -12.998,2.1815 -18.9839,4.47284 -4.2189,1.61575 -8.4378,3.23032 -11.7071,3.19961 -3.28347,-0.0318898 -7.49882,-1.72795 -11.7059,-3.42166 -5.96103,-2.39764 -11.9091,-4.79055 -18.8929,-4.7693 -6.96142,0.022441 -12.8953,2.45433 -18.8303,4.88504 -4.18347,1.71378 -8.36694,3.42756 -11.5571,3.45827 -3.25158,0.0307087 -7.60985,-1.71614 -11.9717,-3.46418 -5.70237,-2.28662 -11.4118,-4.57441 -18.0496,-4.7941 -13.1835,-0.433465 -24.4358,7.52599 -35.654,15.6295 -0.214961,0.12874 -0.425197,0.266929 -0.629528,0.415748l5.46496 5.49213 -5.46378 -5.46969 -0.0153543 0.0106299zm10.9205 10.9311l-3.04607 -3.04961 3.02717 3.06378 0.0188977 -0.0141732z"/>
  <path class="fil9" d="M904.465 1168.86c-2.22874,7.89686 1.6441,8.77205 -8.73898,13.0347 -0.269292,0.191339 -19.9973,5.46378 -7.32284,10.8697 0.0236221,0.00944883 15.965,-4.08189 18.0721,-4.67717 10.4634,-2.96103 -1.54961,-4.78465 16.3323,-5.17796 7.25906,-0.158268 6.03544,-6.6815 14.2536,-3.75945 8.21339,2.92087 5.34331,1.5437 14.0102,5.3504 1.24961,0.549213 4.67126,0.0862205 11.8913,3.14528 6.59882,2.79685 16.3925,0.390945 17.5595,-3.95788 2.65394,0 22.7162,16.7339 40.4244,-1.07953l0.714567 -0.719292c12.4004,-12.4736 16.3382,0.579922 39.9922,0.579922 18.5788,0 3.69095,8.35867 25.1185,-1.55551 5.73308,-2.65158 14.6929,14.3197 23.2701,7.91694 6.09567,-4.55197 15.3284,-7.52717 22.513,-4.39961 6.11457,2.66221 13.0595,-4.08662 17.426,-8.20631 13.3051,-0.255118 23.5016,8.83465 35.6055,0.116929 4.61103,-3.32244 15.2008,12.874 30.5445,8.22875 5.18741,-1.57087 7.95709,10.1575 20.9469,9.68032 12.9142,-0.474804 7.11378,-3.88347 21.1772,-4.063 11.8524,-0.151181 10.5827,-14.4095 5.87126,-20.3811 -0.166536,-0.212599 -1.58858,-3.12756 -1.65945,-3.51733 -9.78662,-4.85433 -81.9402,-2.16142 -100.622,-4.43268 -35.5158,-4.31929 -61.8166,4.77048 -98.1804,4.77048 -33.7004,0 -78.6024,1.16693 -110.812,-0.511418 -4.96654,-0.258662 -41.3091,-4.86615 -44.2973,-1.6252 -0.334252,0.362599 -0.281103,0.386221 -0.392126,0.848032 -1.23543,0.219685 -1.60866,1.02756 -2.28071,2.1 -0.591733,0.943702 -1.22244,0.731103 -1.41732,1.42205z"/>
  <path class="fil10" d="M1263.45 1170.07c2.15315,7.89686 -1.5874,8.77205 8.44135,13.0335 0.259843,0.19252 19.3134,5.46496 7.07245,10.8709 -0.022441,0.00944883 -15.4193,-4.08189 -17.4555,-4.67717 -10.1055,-2.96103 1.49646,-4.78465 -15.7748,-5.17678 -7.01103,-0.159449 -5.82993,-6.68268 -13.7658,-3.76181 -7.93465,2.92087 -5.1626,1.54488 -13.5319,5.35158 -1.20827,0.549213 -4.513,0.0862205 -11.485,3.14528 -6.37441,2.79567 -15.8339,0.389764 -16.9606,-3.95788 -2.56299,0 -21.9414,16.7339 -39.0449,-1.07953l-0.690945 -0.719292c-11.9764,-12.4736 -15.7795,0.579922 -38.6268,0.579922 -17.9445,0 -3.56457,8.35749 -24.261,-1.55551 -5.53583,-2.65158 -14.191,14.3197 -22.474,7.91575 -5.8878,-4.55079 -14.8063,-7.52599 -21.7453,-4.39843 -5.90552,2.66221 -12.613,-4.08662 -16.8307,-8.20631 -12.8516,-0.255118 -22.6996,8.83465 -34.3902,0.116929 -4.45276,-3.32244 -14.6823,12.874 -29.5016,8.22875 -5.01024,-1.57087 -7.68544,10.1575 -20.2323,9.68032 -12.4736,-0.475985 -6.87048,-3.88347 -20.4543,-4.063 -11.4473,-0.151181 -10.2201,-14.4106 -5.67048,-20.3811 0.16063,-0.212599 1.53425,-3.12756 1.60394,-3.51733 9.45119,-4.85552 79.141,-2.16142 97.1859,-4.43268 34.3028,-4.31929 59.706,4.7693 94.8284,4.7693 32.55,0 75.9178,1.16693 107.029,-0.510237 4.79646,-0.258662 39.8988,-4.86733 42.7855,-1.6252 0.322441,0.362599 0.270473,0.386221 0.377953,0.846851 1.19291,0.219685 1.55433,1.02874 2.20276,2.10118 0.571654,0.94252 1.1811,0.731103 1.3689,1.42205z"/>
  <path class="fil13" d="M1230.83 1104.87l-288.252 1.19528c-11.0433,0.046063 -21.065,5.10709 -28.317,13.2236 -7.24489,8.10946 -11.7213,19.2957 -11.6799,31.5969l0 0.00236221c0.0248032,7.28977 2.73071,13.9075 7.07127,18.6945 4.33465,4.77992 10.3193,7.73386 16.9087,7.7067l0.00236221 0 320.841 -1.32992c6.56339,-0.0271654 12.5197,-3.03425 16.8284,-7.85788 4.30276,-4.81654 6.96024,-11.4673 6.93662,-18.7902 -0.0425197,-12.2705 -4.59685,-23.4071 -11.9032,-31.4622 -7.29804,-8.0504 -17.3646,-13.024 -28.4362,-12.9791zm-304.269 72.4193l0.0011811 0m-23.9811 -26.4036l0 0"/>
  <path class="fil14" d="M927.663 1120.01c1.7504,0 3.1689,3.00591 3.1689,6.71221 0,3.70748 -1.41851,6.71339 -3.1689,6.71339 -1.7504,0 -3.17008,-3.00591 -3.17008,-6.71339 0,-3.7063 1.41969,-6.71221 3.17008,-6.71221z"/>
  <path class="fil14" d="M947.183 1116.56c1.67244,0.514961 2.1437,3.80551 1.05118,7.34882 -1.09134,3.54213 -3.33425,5.99646 -5.0067,5.4815 -1.67244,-0.516142 -2.1437,-3.8067 -1.05118,-7.35001 1.09134,-3.54213 3.33307,-5.99646 5.0067,-5.48032z"/>
  <path class="fil14" d="M964.664 1128.6c1.44567,0.986221 0.927166,4.26851 -1.16102,7.33347 -2.08701,3.0626 -4.95237,4.74804 -6.39922,3.763 -1.44567,-0.986221 -0.927166,-4.26969 1.16102,-7.33229 2.08701,-3.06496 4.95237,-4.74922 6.39922,-3.76418z"/>
  <path class="fil14" d="M984.792 1116.9c1.09134,1.3689 -0.372048,4.35355 -3.26929,6.66615 -2.89607,2.3126 -6.13111,3.07914 -7.22363,1.71142 -1.09252,-1.36772 0.370866,-4.35237 3.26811,-6.66615 2.89725,-2.3126 6.13229,-3.07914 7.22481,-1.71142z"/>
  <path class="fil14" d="M1005.95 1129.43c0.641339,1.62874 -1.63583,4.05 -5.08583,5.40709 -3.45,1.35709 -6.76654,1.13622 -7.40788,-0.49252 -0.641339,-1.62992 1.63701,-4.05 5.08701,-5.40709 3.45,-1.35709 6.76654,-1.13622 7.4067,0.49252z"/>
  <path class="fil14" d="M1022.07 1122.41c0.132284,1.74567 -2.75788,3.3874 -6.45473,3.66851 -3.69685,0.279921 -6.80079,-0.907087 -6.93308,-2.65276 -0.132284,-1.74567 2.7567,-3.38859 6.45355,-3.66851 3.69685,-0.281103 6.80079,0.907087 6.93426,2.65276z"/>
  <path class="fil14" d="M1042.82 1134.09c-0.388583,1.70669 -3.63425,2.42599 -7.24843,1.60512 -3.61536,-0.820867 -6.23268,-2.87126 -5.8441,-4.57796 0.387402,-1.70788 3.63189,-2.42599 7.24725,-1.60512 3.61536,0.820867 6.23268,2.87126 5.84528,4.57796z"/>
  <path class="fil14" d="M1050.31 1123.26c-0.874016,1.51772 -4.18701,1.24843 -7.39961,-0.601182 -3.2126,-1.84961 -5.10945,-4.57914 -4.23662,-6.09567 0.872835,-1.51772 4.18583,-1.24843 7.39961,0.601182 3.2126,1.84961 5.10945,4.57914 4.23662,6.09567z"/>
  <path class="fil14" d="M1071.46 1132.64c-1.2815,1.19291 -4.36772,-0.0401575 -6.8941,-2.75433 -2.5252,-2.71418 -3.53386,-5.88071 -2.25236,-7.07363 1.2815,-1.19291 4.36772,0.0401575 6.8941,2.75433 2.5252,2.71418 3.53386,5.88189 2.25236,7.07363z"/>
  <path class="fil14" d="M1082.88 1127.04c-1.57677,0.761812 -4.16339,-1.3252 -5.77678,-4.663 -1.61457,-3.3378 -1.64528,-6.66142 -0.0696851,-7.42323 1.57677,-0.762993 4.16221,1.3252 5.77678,4.663 1.61457,3.3378 1.64528,6.66142 0.0696851,7.42323z"/>
  <path class="fil14" d="M1107.09 1138.81c-1.73032,0.264567 -3.58701,-2.49331 -4.14567,-6.15709 -0.559843,-3.66496 0.389764,-6.8504 2.12126,-7.11497 1.73032,-0.263386 3.58583,2.49331 4.14567,6.15827 0.559843,3.66496 -0.389764,6.8504 -2.12126,7.11378z"/>
  <path class="fil14" d="M1115.55 1127.24c-1.73268,-0.257481 -2.6941,-3.43937 -2.14961,-7.1067 0.54567,-3.66614 2.39055,-6.43111 4.12323,-6.17363 1.7315,0.257481 2.69292,3.43937 2.14843,7.1067 -0.54567,3.66614 -2.39173,6.43111 -4.12205,6.17363z"/>
  <path class="fil14" d="M1127.45 1140.06c-1.57795,-0.755906 -1.56024,-4.07953 0.0401575,-7.42323 1.60158,-3.3437 4.17992,-5.44134 5.75906,-4.68544 1.57795,0.755906 1.56024,4.07953 -0.0401575,7.42323 -1.60158,3.3437 -4.17992,5.44134 -5.75906,4.68544z"/>
  <path class="fil14" d="M1141.85 1126.24c-1.28622,-1.18701 -0.290551,-4.35827 2.2252,-7.0819 2.51457,-2.72362 5.59607,-3.96851 6.88229,-2.7815 1.28622,1.18819 0.290551,4.35827 -2.2252,7.08308 -2.51457,2.72362 -5.59607,3.96851 -6.88229,2.78032z"/>
  <path class="fil14" d="M1148.44 1135.86c-0.878741,-1.51417 1.00748,-4.25079 4.213,-6.11221 3.20551,-1.8626 6.51733,-2.14488 7.39725,-0.63189 0.878741,1.51417 -1.00748,4.25079 -4.213,6.11339 -3.20551,1.86142 -6.51733,2.1437 -7.39725,0.630709z"/>
  <path class="fil14" d="M1155.55 1122.05c-0.394488,-1.70551 2.21457,-3.76536 5.82638,-4.6004 3.61181,-0.833859 6.85985,-0.12874 7.25434,1.57677 0.394488,1.70551 -2.21457,3.76536 -5.82638,4.6004 -3.61181,0.83504 -6.85985,0.129921 -7.25434,-1.57677z"/>
  <path class="fil14" d="M1169.58 1130.11c0.125197,-1.74567 3.22441,-2.94567 6.92245,-2.67992 3.69803,0.266929 6.5941,1.89803 6.4689,3.6437 -0.126378,1.74685 -3.22677,2.94567 -6.92363,2.67992 -3.69803,-0.265748 -6.5941,-1.89685 -6.46772,-3.6437z"/>
  <path class="fil14" d="M1182.34 1119.57c0.634252,-1.6311 3.94961,-1.86496 7.40434,-0.520867 3.45591,1.3441 5.74252,3.75591 5.10827,5.38701 -0.634252,1.6311 -3.94961,1.86496 -7.40552,0.522048 -3.45473,-1.3441 -5.74252,-3.75591 -5.10709,-5.38819z"/>
  <path class="fil14" d="M1204.61 1127.51c1.08662,-1.37244 4.32402,-0.618898 7.22953,1.68307 2.9067,2.30197 4.38071,5.28071 3.29528,6.65315 -1.0878,1.37126 -4.3252,0.617717 -7.23071,-1.68307 -2.9067,-2.30197 -4.38071,-5.28071 -3.2941,-6.65315z"/>
  <path class="fil14" d="M1211.31 1114.2c1.44213,-0.990946 4.31457,0.682678 6.41339,3.73819 2.09882,3.0567 2.6315,6.33662 1.18819,7.32875 -1.44331,0.990946 -4.31457,-0.682678 -6.41457,-3.73937 -2.09882,-3.05433 -2.63032,-6.33662 -1.18701,-7.32756z"/>
  <path class="fil14" d="M1229.16 1121.14c1.67008,-0.523229 3.92126,1.92284 5.02678,5.46142 1.10669,3.53859 0.648426,6.83032 -1.02284,7.35237 -1.67126,0.522048 -3.92126,-1.92284 -5.02796,-5.46142 -1.10551,-3.53859 -0.647245,-6.83032 1.02402,-7.35237z"/>
  <path class="fil14" d="M1246.07 1112.99c1.7504,-0.00590552 3.18071,2.9941 3.19488,6.70158 0.0153543,3.7063 -1.39252,6.71812 -3.14292,6.72402 -1.7504,0.00708662 -3.18189,-2.99292 -3.19607,-6.69922 -0.0141732,-3.70748 1.3937,-6.7193 3.1441,-6.72638z"/>
 </g>
</svg>
