<svg xmlns="http://www.w3.org/2000/svg" viewBox="0 0 512 512"><defs><style>.cls-1{fill:#313d74;}.cls-2{fill:#c0894f;}.cls-3{fill:#f1ce34;}.cls-4{fill:#f0c788;}.cls-5{fill:#e7b46f;}.cls-6{fill:#da9e58;}.cls-7{fill:#76c27d;}.cls-8{fill:#64a167;}.cls-9{fill:#fff;}.cls-10{fill:#d9d9d9;}.cls-11{fill:#aadee6;}.cls-12{fill:#9bc9cc;}.cls-13{fill:#bfeaed;}.cls-14{fill:#db3a46;}.cls-15{fill:#9b112e;}.cls-16{fill:#72392f;}.cls-17{fill:#dc7da7;}</style></defs><title>Food</title><g id="BULINE"><circle class="cls-1" cx="256" cy="256" r="256"/></g><g id="Icons"><path class="cls-2" d="M396.24,203.84h0A84.14,84.14,0,0,1,312.09,288h-200a84.15,84.15,0,0,1-84.15-84.15h0a3.94,3.94,0,0,1,3.95-3.94H392.3A3.93,3.93,0,0,1,396.24,203.84Z"/><path class="cls-3" d="M359.9,213.78a18.48,18.48,0,0,0-18.49,18.45,23.37,23.37,0,0,0-34.88,8.1,23.37,23.37,0,0,0-44.15,8.93A18.45,18.45,0,0,0,239.64,251a23.37,23.37,0,0,0-45.23-4.11,18.42,18.42,0,0,0-26.33-1,23.36,23.36,0,0,0-41.9-3.22,23.39,23.39,0,0,0-27.43-10.42c0-.38,0-.77,0-1.15A23.4,23.4,0,1,0,82.66,253.3c0,.39,0,.77,0,1.16a23.37,23.37,0,0,0,43.55,11.79,23.35,23.35,0,0,0,38.66,2.49,18.46,18.46,0,0,0,32.4-1.08,23.36,23.36,0,0,0,37.08,1.94,18.49,18.49,0,0,0,35.91-1.17,23.37,23.37,0,0,0,36.3-6.94,23.37,23.37,0,0,0,44.21-10.58,23.84,23.84,0,0,0-.16-2.69,18.48,18.48,0,1,0,9.32-34.44Z"/><path class="cls-4" d="M396.24,203.84a3.89,3.89,0,0,1-1.1,2.74c-33.45,34.42-102.86,58.06-183,58.06S62.49,241,29.05,206.58a3.86,3.86,0,0,1-1.11-2.74,3.94,3.94,0,0,1,3.95-3.94h360.4A3.94,3.94,0,0,1,396.24,203.84Z"/><path class="cls-5" d="M359.9,199.9c-37.2,19.95-89.68,32.37-147.81,32.37S101.49,219.85,64.28,199.9Z"/><path class="cls-6" d="M311.77,199.9c-29.49,8.45-63.48,13.26-99.68,13.26s-70.19-4.81-99.67-13.26Z"/><path class="cls-7" d="M453.63,317.63H56.87A36.2,36.2,0,0,1,21.27,288h468A36.2,36.2,0,0,1,453.63,317.63Z"/><path class="cls-8" d="M110.61,317.63H399.89a0,0,0,0,1,0,0v0a18,18,0,0,1-18,18H128.62a18,18,0,0,1-18-18v0A0,0,0,0,1,110.61,317.63Z"/><path class="cls-9" d="M452,244.39h-.74a7.21,7.21,0,0,0,1.28-4.12,7.29,7.29,0,0,0-7.29-7.29H444a7.28,7.28,0,0,0-6.09-11.29h-6.53a10.5,10.5,0,0,0,3.19-7.55h-7.7a10.55,10.55,0,0,0-10.11,7.55H413A7.28,7.28,0,0,0,406.86,233h-1.29a7.29,7.29,0,0,0-6,11.41h-.74a7.29,7.29,0,0,0,0,14.58H452a7.29,7.29,0,0,0,0-14.58Z"/><path class="cls-10" d="M434.53,214.14a10.32,10.32,0,0,1-.39,2.85,10.37,10.37,0,0,0-2.92,4.7h-3.77A7.28,7.28,0,0,0,421.36,233h-1.29a7.29,7.29,0,0,0-6,11.41h-.74a7.29,7.29,0,0,0,0,14.58h-14.5a7.29,7.29,0,0,1,0-14.58h.74a7.29,7.29,0,0,1,6-11.41h1.29A7.28,7.28,0,0,1,413,221.69h3.77a10.54,10.54,0,0,1,10.11-7.55Z"/><path class="cls-11" d="M443.06,288H407.61A20.86,20.86,0,0,1,387,270.25l-1.66-10.94a3.77,3.77,0,0,1,3.73-4.33h72.57a3.76,3.76,0,0,1,3.72,4.33l-1.65,10.94A20.87,20.87,0,0,1,443.06,288Z"/><path class="cls-12" d="M432.93,288H407.6A20.87,20.87,0,0,1,387,270.25l-1.65-10.94A3.77,3.77,0,0,1,389,255h25.34a3.77,3.77,0,0,0-3.73,4.34l1.66,10.94A20.86,20.86,0,0,0,432.93,288Z"/><ellipse class="cls-13" cx="453.5" cy="266.89" rx="5.75" ry="7.25"/><path class="cls-14" d="M338.43,244.39h-.75a7.22,7.22,0,0,0,1.29-4.12,7.29,7.29,0,0,0-7.29-7.29h-1.29a7.28,7.28,0,0,0-6.09-11.29h-6.52a10.54,10.54,0,0,0,3.19-7.55h-7.71a10.56,10.56,0,0,0-10.11,7.55h-3.77A7.28,7.28,0,0,0,293.29,233H292a7.29,7.29,0,0,0-7.29,7.29,7.21,7.21,0,0,0,1.28,4.12h-.74a7.29,7.29,0,1,0,0,14.58h53.17a7.29,7.29,0,0,0,0-14.58Z"/><path class="cls-15" d="M321,214.14a10.32,10.32,0,0,1-.39,2.85,10.37,10.37,0,0,0-2.92,4.7h-3.77A7.28,7.28,0,0,0,307.8,233h-1.29a7.29,7.29,0,0,0-6,11.41h-.74a7.29,7.29,0,1,0,0,14.58h-14.5a7.29,7.29,0,1,1,0-14.58H286A7.29,7.29,0,0,1,292,233h1.29a7.28,7.28,0,0,1,6.09-11.29h3.77a10.54,10.54,0,0,1,10.11-7.55Z"/><path class="cls-11" d="M329.49,288H294a20.87,20.87,0,0,1-20.63-17.74l-1.65-10.94a3.76,3.76,0,0,1,3.72-4.33h72.57a3.77,3.77,0,0,1,3.73,4.33l-1.66,10.94A20.86,20.86,0,0,1,329.49,288Z"/><path class="cls-12" d="M319.37,288H294a20.87,20.87,0,0,1-20.63-17.74l-1.65-10.94a3.77,3.77,0,0,1,3.72-4.34h25.34a3.77,3.77,0,0,0-3.73,4.34l1.66,10.94A20.86,20.86,0,0,0,319.37,288Z"/><ellipse class="cls-13" cx="339.93" cy="266.89" rx="5.75" ry="7.25"/><path class="cls-7" d="M449.7,200.81h0a0,0,0,0,1,0,0v2.3a24.36,24.36,0,0,1-24.36,24.36h0a0,0,0,0,1,0,0v-2.3A24.36,24.36,0,0,1,449.7,200.81Z"/><path class="cls-7" d="M252.15,165.76a39.49,39.49,0,0,0-36.31,24A39.46,39.46,0,0,0,182,168.32l-3.73-.12a39.48,39.48,0,0,0,34.37,40.45V209h0c.84,0,1.67,0,2.49-.09.43,0,.86.06,1.3.07l3.72.13h0c0-.28,0-.56,0-.84a39.48,39.48,0,0,0,32-38.76v-3.73Z"/><path class="cls-16" d="M499.37,335.6H12.63a253.85,253.85,0,0,0,15.88,37.88h455A253.85,253.85,0,0,0,499.37,335.6Z"/><path class="cls-17" d="M28.51,373.48a256.06,256.06,0,0,0,455,0Z"/></g></svg>